PathFileType	4	(X/Y/Z)	C:\Users\WrightLab\Desktop\Jo\P3_32.trc
DataRate	CameraRate	NumFrames	NumMarkers	Units	OrigDataRate	OrigDataStartFrame	OrigNumFrames
100.00	100.00	       66	19	mm	100.00	1	       671
Frame#	Time	Headset_Front			Headset_Back			Headset_Left			Headset_Right			Left_Shoulder			Right_Shoulder			Sternum			C7			Left Elbow			Right Elbow			Left Wrist			Right Wrist			Left ASIS			Right ASIS			S2			Left Knee			Right Knee			Left Ankle			Right Ankle			
		X1	Y1	Z1	X2	Y2	Z2	X3	Y3	Z3	X4	Y4	Z4	X5	Y5	Z5	X6	Y6	Z6	X7	Y7	Z7	X8	Y8	Z8	X9	Y9	Z9	X10	Y10	Z10	X11	Y11	Z11	X12	Y12	Z12	X13	Y13	Z13	X14	Y14	Z14	X15	Y15	Z15	X16	Y16	Z16	X17	Y17	Z17	X18	Y18	Z18	X19	Y19	Z19	

1	0.000	-722.02924	61.24159	-1806.58276																						-325.15701	970.66455	-1726.88147							-833.44061	782.86115	-1608.69263																						
2	0.010	-722.00653	61.26013	-1806.48291																						-324.99008	970.53912	-1727.30774							-833.00195	783.26581	-1607.00403																						
3	0.020	-721.98645	61.27028	-1806.39319																						-324.65457	971.54169	-1729.79980							-832.63031	783.63489	-1605.58008																						
4	0.030	-721.99323	61.26007	-1806.42175																						-324.29044	974.28876	-1735.34192							-831.82898	783.43896	-1607.25854																						
5	0.040	-722.00873	61.24901	-1806.49023																						-324.11694	974.15912	-1735.78345							-831.03271	782.61536	-1609.63733																						
6	0.050	-721.93884	61.35455	-1806.19617																						-323.95172	974.03754	-1736.19714							-830.43982	781.80579	-1610.07178																						
7	0.060	-722.01233	61.26765	-1806.51172																						-323.77444	973.93097	-1736.55127							-830.28333	781.95337	-1609.46887																						
8	0.070	-721.97894	61.33797	-1806.37683																						-323.57486	973.83801	-1736.84790							-830.14349	782.15570	-1608.94800																						
9	0.080	-721.97668	61.34709	-1806.36865																						-322.99588	972.90295	-1735.86243							-829.93323	782.37781	-1608.14417																						
10	0.090	-722.01038	61.32402	-1806.51782																						-322.79965	972.80151	-1736.19263							-829.60449	782.66394	-1606.87170																						
11	0.100	-722.09192	61.20731	-1806.86267																						-322.40536	973.40546	-1737.84778							-829.20703	783.11633	-1605.35999																						
12	0.110	-722.07495	61.23465	-1806.79187																						-322.23022	973.32782	-1738.09412							-828.59845	783.69482	-1603.01672																						
13	0.120	-722.11835	61.18727	-1806.97925																						-322.04477	973.23718	-1738.38708							-826.87866	782.43237	-1604.56665																						
14	0.130	-722.16754	61.10704	-1807.18457																						-321.85825	973.14673	-1738.67944							-825.86804	783.40985	-1600.67444																						
15	0.140	-722.16846	61.11729	-1807.19141																						-321.35495	973.58136	-1739.96570							-824.52649	783.78625	-1600.28357																						
16	0.150	-722.11377	61.21641	-1806.96594																						-321.16415	973.49347	-1740.24744							-823.43536	783.26563	-1601.64954													-720.63428	387.30197	-1713.07458							
17	0.160	-722.11121	61.19614	-1806.94861																						-320.95447	973.41571	-1740.48645							-822.29437	782.15778	-1604.65759													-720.05597	386.74112	-1715.78625							
18	0.170	-722.10822	61.20456	-1806.93713																						-320.77377	973.30896	-1740.84290							-822.06592	782.43567	-1603.78992													-719.99969	386.80991	-1715.55103							
19	0.180	-722.06665	61.26214	-1806.76099																						-320.13095	973.09589	-1741.19580							-821.90601	782.68274	-1603.19580													-719.94391	386.90097	-1715.32361							
20	0.190	-722.09735	61.21643	-1806.89014																						-319.99246	972.98108	-1741.59399							-821.48279	783.17603	-1601.58276													-719.88025	386.98776	-1715.05994							
21	0.200	-722.05450	61.26472	-1806.70557																						-319.36487	972.75299	-1742.00720							-821.08917	783.65662	-1600.08777													-719.75140	387.55688	-1715.87659							
22	0.210	-722.02869	61.30901	-1806.59839																						-319.24960	972.61493	-1742.49976							-820.42291	782.98566	-1600.25208													-719.85968	387.01785	-1714.97510							
23	0.220	-722.02454	61.30953	-1806.57947																						-319.13382	972.47797	-1742.98828							-818.87933	783.08661	-1599.79700													-719.73779	387.57590	-1715.82031							
24	0.230	-722.04871	61.27971	-1806.68274																						-318.72720	972.86908	-1744.46277							-818.00897	783.98273	-1596.44507													-719.69934	387.63498	-1715.66272							
25	0.240	-722.10675	61.19371	-1806.92749																						-318.63297	972.73212	-1744.95715							-817.08636	784.86609	-1592.87524													-719.72858	387.60864	-1715.78760							
26	0.250	-722.04120	61.26070	-1806.64307																						-318.33893	973.31702	-1746.71411							-816.23193	784.78052	-1594.36218													-719.68939	387.65234	-1715.62268							
27	0.260	-722.03772	61.26500	-1806.62817																						-318.25732	973.18298	-1747.20105							-815.79846	785.15643	-1592.67358													-719.66003	387.70380	-1715.50391							
28	0.270	-722.02734	61.25537	-1806.57788																						-318.32556	974.09296	-1749.40027							-814.15057	783.04492	-1599.33093													-719.68280	387.68274	-1715.60071							
29	0.280	-722.08582	61.19393	-1806.83093																						-318.38666	974.99280	-1751.63855							-813.89954	783.29047	-1598.35815													-719.63422	387.74796	-1715.39905							
30	0.290	-722.02399	61.23656	-1806.55725																						-318.33469	974.86084	-1752.12646							-813.72583	783.56604	-1597.71167													-719.66095	387.71152	-1715.51001							
31	0.300	-722.05530	61.21727	-1806.69641																						-318.29663	974.73474	-1752.59583							-813.58344	783.75171	-1597.17163													-719.11176	386.71310	-1718.53992							
32	0.310	-722.06049	61.19585	-1806.71472																						-318.27063	974.61279	-1753.05273							-813.21289	784.18976	-1595.75476													-719.12842	386.69113	-1718.60901							
33	0.320	-722.04321	61.22245	-1806.64221																						-318.24100	974.49542	-1753.49121							-813.03363	784.44153	-1595.07935													-719.08710	386.78989	-1718.44873							
34	0.330	-722.01129	61.23914	-1806.49927																						-318.22379	974.38452	-1753.90845							-812.74268	784.82440	-1593.97656													-719.12128	386.73172	-1718.58752							
35	0.340	-722.05713	61.20174	-1806.70068																						-318.20773	974.27808	-1754.30896							-812.55615	785.06464	-1593.26819													-719.09760	386.80087	-1718.49878							
36	0.350	-722.02991	61.22076	-1806.58032																						-318.19186	974.18408	-1754.66223							-812.32605	785.36853	-1592.39636													-719.16333	386.72324	-1718.77441							
37	0.360	-722.00745	61.24222	-1806.48254																						-318.17719	974.08850	-1755.02197							-812.13489	785.63092	-1591.67432													-719.10785	386.85086	-1718.55762							
38	0.370	-722.03113	61.25234	-1806.59424																						-318.17575	973.99573	-1755.37439							-811.97235	785.86230	-1591.06262													-719.15869	386.79831	-1718.77283							
39	0.380	-722.06555	61.17271	-1806.73181																						-318.16104	973.92542	-1755.63818							-811.80463	786.10358	-1590.43201													-719.16138	386.84299	-1718.79626							
40	0.390	-722.08044	61.15575	-1806.79590																						-318.15842	973.85828	-1755.89270							-811.68481	786.27313	-1589.98059													-719.37915	387.99622	-1717.84070							
41	0.400	-722.14398	61.07949	-1807.06836																						-318.13522	973.80835	-1756.07678							-811.60437	786.38605	-1589.67749													-719.05951	388.01959	-1719.76465							
42	0.410	-722.06030	61.19443	-1806.71338																						-318.12390	973.75433	-1756.27917							-811.53033	786.49017	-1589.39856													-719.07410	388.01480	-1719.82910							
43	0.420	-722.15106	61.06537	-1807.09741																						-318.10300	973.70496	-1756.46179							-811.43945	786.60205	-1589.05212													-719.09894	388.01675	-1719.94165							
44	0.430	-722.05176	61.19510	-1806.67407																						-317.89911	974.37878	-1757.91187							-811.41125	786.63928	-1588.94531													-719.13574	387.99670	-1720.10205							
45	0.440	-722.08264	61.17149	-1806.81042																						-317.88815	974.33466	-1758.07703							-811.39331	786.66180	-1588.87683													-719.11731	388.03186	-1720.02832							
46	0.450	-722.15601	61.07296	-1807.12219																						-317.86679	974.29700	-1758.21497							-811.00848	786.51172	-1591.16614													-719.16406	388.00104	-1720.23083							
47	0.460	-722.07617	61.15599	-1806.77612																						-317.85864	974.24615	-1758.40625							-810.96155	786.56866	-1590.98669													-719.37598	389.08627	-1719.12720							
48	0.470	-722.11401	61.11705	-1806.94031																						-317.55267	974.70801	-1759.64417							-811.02386	786.51007	-1591.22888													-719.46796	388.97897	-1719.51355							
49	0.480	-722.15106	61.06537	-1807.09741																						-317.54474	974.62946	-1759.94116							-811.08704	786.45764	-1591.47620													-719.50903	388.98770	-1719.70081							
50	0.490	-722.16370	61.06505	-1807.15564																						-317.55359	974.56061	-1760.20557							-811.09979	786.42615	-1591.52100													-719.61938	388.84827	-1720.16138							
51	0.500	-722.15326	60.99839	-1807.08948																						-317.56549	974.49591	-1760.45496							-811.21106	786.31616	-1591.95203													-719.44141	388.75534	-1722.79492							
52	0.510	-721.54645	59.60630	-1810.83008																						-317.59952	974.40350	-1760.81531							-810.72388	785.13330	-1595.42737													-719.54626	388.67056	-1723.24548							
53	0.520	-722.20905	61.00134	-1807.34778																						-317.63092	974.30646	-1761.19275							-810.79626	785.07501	-1595.71106													-719.73505	388.53821	-1724.06177							
54	0.530	-722.26257	60.89857	-1807.56689																						-317.65463	974.21350	-1761.55286							-810.82684	785.02161	-1595.82397													-720.01563	388.26935	-1725.25598							
55	0.540	-722.28693	60.86974	-1807.67139																						-317.69440	974.12177	-1761.91211							-810.93274	784.91785	-1596.23486													-720.40027	387.98273	-1726.91394							
56	0.550	-722.36090	60.78572	-1807.99011																						-318.02206	973.49670	-1761.30054							-811.02911	784.80048	-1596.60315													-720.66949	388.44980	-1728.99561							
57	0.560	-722.36932	60.77144	-1808.02515																						-318.27628	972.66425	-1760.46521							-811.18195	784.60150	-1597.18372													-721.03735	388.19043	-1730.58508							
58	0.570	-722.36115	60.76878	-1807.98669																						-318.35880	972.49860	-1761.11633							-810.97595	783.09937	-1600.25110													-721.46674	387.77045	-1732.40979							
59	0.580	-722.42981	60.69718	-1808.28406																						-318.35272	971.30518	-1759.99927							-811.17529	782.80200	-1600.99976													-721.78107	387.57693	-1733.77429							
60	0.590	-722.45618	60.62509	-1808.38647																						-317.88275	969.43964	-1757.94824							-811.40155	782.54388	-1601.86902													-722.21924	387.16910	-1735.64050							
61	0.600	-722.61572	60.38570	-1809.05798																						-317.98993	969.27362	-1758.60559							-811.61133	782.19049	-1602.64709													-722.42926	387.71060	-1737.47766							
62	0.610	-722.00720	58.94965	-1812.78088																						-317.78381	968.23859	-1757.92505							-811.88623	781.87354	-1603.70239													-722.58832	387.72531	-1738.19666							
63	0.620	-722.07733	58.84881	-1813.07739																						-317.93066	968.05865	-1758.64465							-812.16968	781.51520	-1604.78284													-722.77374	387.62573	-1739.00464							
64	0.630	-722.13629	58.74450	-1813.32166																						-318.11264	967.89740	-1759.30225							-813.17847	782.73120	-1600.84290													-722.97235	387.44806	-1739.85229							
65	0.640	-722.25092	58.61232	-1813.81531																						-318.26346	967.76019	-1759.86072							-813.40021	782.47260	-1601.69250													-722.68640	387.56958	-1742.06836							
66	0.650	-722.27258	58.55302	-1813.89941																						-318.44424	967.63806	-1760.36963							-814.30133	783.06970	-1599.95850													-723.03906	388.56570	-1741.56982							
